<?xml version="1.0" encoding="UTF-8" standalone="no"?>
<!-- Created with Inkscape (http://www.inkscape.org/) -->

<svg
   width="16"
   height="16"
   viewBox="0 0 16 16"
   version="1.1"
   id="svg1"
   xmlns="http://www.w3.org/2000/svg"
   xmlns:svg="http://www.w3.org/2000/svg">
  <defs
     id="defs1" />
  <g
     id="layer1">
    <path
       id="path1"
       style="fill:#26ff24;fill-opacity:1;stroke:none;stroke-width:0.419497"
       d="M 7.8694689,0.00168201 C 5.5341466,0.04527559 3.2301362,1.1399313 1.7816324,2.9830975 0.28058425,4.7962928 -0.3250227,7.314298 0.16867105,9.6143598 0.6170056,11.930493 2.1768734,13.971114 4.2505509,15.078285 c 2.1635534,1.143717 4.8558211,1.240649 7.0751361,0.192076 2.268264,-1.01905 3.997419,-3.168459 4.482794,-5.6128905 C 16.576695,6.399083 14.973725,2.7837735 12.077483,1.1197686 10.814699,0.36840163 9.33894,-0.02929104 7.8694689,0.00168201 Z" />
    <path
       id="path6"
       style="fill:none;fill-opacity:1;stroke:#ffffff;stroke-width:0.357659;stroke-opacity:1"
       d="M 7.888539,1.1802664 C 5.8975034,1.2174345 3.9331636,2.1507444 2.6982066,3.7222386 1.4184517,5.2681793 0.90212682,7.4150451 1.3230375,9.3760911 c 0.3822384,1.9747479 1.7121414,3.7145929 3.4801054,4.6585729 1.8445898,0.975141 4.1399478,1.057784 6.0320781,0.163765 1.933863,-0.868848 3.408096,-2.701446 3.821914,-4.7855815 0.65496,-2.77812 -0.711691,-5.8605538 -3.180952,-7.279294 C 10.399565,1.4929337 9.1413721,1.1538586 7.888539,1.1802664 Z" />
    <path
       style="fill:none;fill-opacity:1;stroke:#ffffff;stroke-width:0.524;stroke-opacity:1"
       d="M 12.780904,4.2011935 7.3384484,11.703325 3.4100597,7.5703325"
       id="path5" />
  </g>
</svg>
