<?xml version="1.0" encoding="UTF-8" standalone="no"?>
<!-- Created with Inkscape (http://www.inkscape.org/) -->

<svg
   width="16"
   height="16"
   viewBox="0 0 16 16"
   version="1.1"
   id="svg1"
   xml:space="preserve"
   xmlns:inkscape="http://www.inkscape.org/namespaces/inkscape"
   xmlns:sodipodi="http://sodipodi.sourceforge.net/DTD/sodipodi-0.dtd"
   xmlns="http://www.w3.org/2000/svg"
   xmlns:svg="http://www.w3.org/2000/svg"><sodipodi:namedview
     id="namedview1"
     pagecolor="#ffffff"
     bordercolor="#000000"
     borderopacity="0.25"
     inkscape:showpageshadow="2"
     inkscape:pageopacity="0.0"
     inkscape:pagecheckerboard="0"
     inkscape:deskcolor="#d1d1d1"
     inkscape:document-units="px" /><defs
     id="defs1" /><g
     inkscape:label="Layer 1"
     inkscape:groupmode="layer"
     id="layer1"><rect
       style="fill:#ffed0a;fill-opacity:1;stroke-width:1.41296"
       id="rect1"
       width="16"
       height="16"
       x="0"
       y="0" /><g
       style="fill:#ffffff"
       id="g1"
       transform="matrix(0.77138896,0,0,0.70000352,-1.256683,-0.4000129)"><g
         id="SVGRepo_bgCarrier"
         stroke-width="0" /><g
         id="SVGRepo_tracerCarrier"
         stroke-linecap="round"
         stroke-linejoin="round" /><g
         id="SVGRepo_iconCarrier"><path
           d="m 14.478,14.8829 a 4.06111,4.06111 0 0 1 -2.18725,-0.39825 1.4389,1.4389 0 0 1 -0.53547,-1.01019 0.22184,0.22184 0 0 0 -0.22662,-0.21942 c -0.31659,-0.0038 -0.63312,-0.003 -0.94965,-4.3e-4 a 0.2113,0.2113 0 0 0 -0.23138,0.18628 2.33854,2.33854 0 0 0 0.75305,1.84454 3.99135,3.99135 0 0 0 2.22827,0.8382 8.06151,8.06151 0 0 0 2.53308,-0.10755 3.12591,3.12591 0 0 0 1.67823,-0.90442 2.33824,2.33824 0 0 0 0.396,-2.23077 1.869,1.869 0 0 0 -1.2304,-1.09454 c -1.28077,-0.4494 -2.66431,-0.41541 -3.97,-0.7569 -0.22668,-0.07135 -0.50366,-0.1488 -0.60467,-0.38879 a 0.85461,0.85461 0 0 1 0.28418,-0.95478 2.5576,2.5576 0 0 1 1.34875,-0.33581 4.07051,4.07051 0 0 1 1.88416,0.26959 1.43564,1.43564 0 0 1 0.68677,0.99219 0.243,0.243 0 0 0 0.2276,0.23565 c 0.31433,0.0064 0.62878,0.0017 0.94311,0.0021 a 0.22791,0.22791 0 0 0 0.24732,-0.16772 2.43369,2.43369 0 0 0 -1.18665,-2.106 5.8791,5.8791 0 0 0 -3.2182,-0.49243 v -8e-5 a 3.50546,3.50546 0 0 0 -2.17615,0.87438 2.1746,2.1746 0 0 0 -0.43438,2.26264 1.92964,1.92964 0 0 0 1.21838,1.06177 c 1.27649,0.46106 2.67554,0.31311 3.96442,0.72082 0.25116,0.08521 0.54364,0.21552 0.6206,0.49506 a 0.9907,0.9907 0 0 1 -0.26965,0.9462 2.97065,2.97065 0 0 1 -1.79345,0.43866 z m 5.81891,-8.44537 q -3.73837,-2.114 -7.47845,-4.22418 a 1.67742,1.67742 0 0 0 -1.63733,0 Q 7.4556,4.31715 3.72968,6.42075 a 1.54242,1.54242 0 0 0 -0.8042,1.34271 v 8.47424 a 1.55266,1.55266 0 0 0 0.8352,1.355 c 0.71351,0.38837 1.40674,0.81629 2.13318,1.17884 A 3.06373,3.06373 0 0 0 8.63208,18.84679 2.1275,2.1275 0 0 0 9.6269,16.92565 C 9.63245,14.12896 9.62775,11.33214 9.62903,8.53539 A 0.21981,0.21981 0 0 0 9.42176,8.28124 C 9.10437,8.27611 8.7865,8.27824 8.46912,8.28039 a 0.20935,0.20935 0 0 0 -0.228,0.21368 c -0.00427,2.77875 8.6e-4,5.55829 -0.00256,8.33746 a 0.94053,0.94053 0 0 1 -0.609,0.88373 1.53242,1.53242 0 0 1 -1.23993,-0.16595 q -0.99152,-0.56 -1.983,-1.11988 A 0.23714,0.23714 0 0 1 4.27199,16.19414 q 0,-4.19383 0,-8.38726 a 0.2589,0.2589 0 0 1 0.157,-0.2602 Q 8.1423,5.4553 11.85419,3.35953 a 0.258,0.258 0 0 1 0.29163,4.3e-4 Q 15.859,5.452 19.57184,7.5455 a 0.262,0.262 0 0 1 0.15613,0.26142 Q 19.72733,12 19.72712,16.19376 a 0.242,0.242 0 0 1 -0.13294,0.23828 q -3.65643,2.06753 -7.31677,4.12909 c -0.11658,0.06494 -0.25458,0.16943 -0.39093,0.09076 -0.6391,-0.36176 -1.27039,-0.73755 -1.90735,-1.10273 A 0.20589,0.20589 0 0 0 9.74945,19.53537 5.21834,5.21834 0 0 1 8.86737,19.94699 C 8.72931,20.0029 8.55945,20.01883 8.46442,20.14688 a 1.31566,1.31566 0 0 0 0.43127,0.31061 q 1.11741,0.647 2.236,1.29285 a 1.62967,1.62967 0 0 0 1.65539,0.046 q 3.7261,-2.101 7.45185,-4.20392 a 1.55627,1.55627 0 0 0 0.83563,-1.35474 V 7.76346 A 1.53956,1.53956 0 0 0 20.29694,6.43753 Z"
           id="path1" /></g></g></g></svg>
