<?xml version="1.0" encoding="UTF-8" standalone="no"?>
<!-- Created with Inkscape (http://www.inkscape.org/) -->

<svg
   width="16"
   height="16"
   viewBox="0 0 16 16"
   version="1.1"
   id="svg1"
   xml:space="preserve"
   xmlns:inkscape="http://www.inkscape.org/namespaces/inkscape"
   xmlns:sodipodi="http://sodipodi.sourceforge.net/DTD/sodipodi-0.dtd"
   xmlns="http://www.w3.org/2000/svg"
   xmlns:svg="http://www.w3.org/2000/svg"><sodipodi:namedview
     id="namedview1"
     pagecolor="#ffffff"
     bordercolor="#000000"
     borderopacity="0.25"
     inkscape:showpageshadow="2"
     inkscape:pageopacity="0.0"
     inkscape:pagecheckerboard="0"
     inkscape:deskcolor="#d1d1d1"
     inkscape:document-units="px" /><defs
     id="defs1" /><g
     inkscape:label="Layer 1"
     inkscape:groupmode="layer"
     id="layer1"><rect
       style="fill:#e10fff;fill-opacity:1;stroke:none;stroke-width:1.37234"
       id="rect1"
       width="16"
       height="16"
       x="0"
       y="0" /><g
       style="fill:none;stroke:#ffffff"
       id="g1"
       transform="matrix(0.69936191,0,0,0.70883323,-0.34517651,-0.4160113)"><g
         id="SVGRepo_bgCarrier"
         stroke-width="0" /><g
         id="SVGRepo_tracerCarrier"
         stroke-linecap="round"
         stroke-linejoin="round" /><g
         id="SVGRepo_iconCarrier"><path
           d="m 12,18 h 0.01 M 11,6 h 2 M 9.2,21 h 5.6 c 1.1201,0 1.6802,0 2.108,-0.218 0.3763,-0.1917 0.6823,-0.4977 0.874,-0.874 C 18,19.4802 18,18.9201 18,17.8 V 6.2 C 18,5.0799 18,4.51984 17.782,4.09202 17.5903,3.71569 17.2843,3.40973 16.908,3.21799 16.4802,3 15.9201,3 14.8,3 H 9.2 C 8.0799,3 7.51984,3 7.09202,3.21799 6.71569,3.40973 6.40973,3.71569 6.21799,4.09202 6,4.51984 6,5.07989 6,6.2 v 11.6 c 0,1.1201 0,1.6802 0.21799,2.108 0.19174,0.3763 0.4977,0.6823 0.87403,0.874 C 7.51984,21 8.07989,21 9.2,21 Z"
           stroke="#ffffff"
           stroke-width="2"
           stroke-linecap="round"
           stroke-linejoin="round"
           id="path1" /></g></g></g></svg>
