<?xml version="1.0" encoding="UTF-8" standalone="no"?>
<!-- Created with Inkscape (http://www.inkscape.org/) -->

<svg
   width="16"
   height="16"
   viewBox="0 0 16 16"
   version="1.1"
   id="svg1"
   xml:space="preserve"
   xmlns:inkscape="http://www.inkscape.org/namespaces/inkscape"
   xmlns:sodipodi="http://sodipodi.sourceforge.net/DTD/sodipodi-0.dtd"
   xmlns="http://www.w3.org/2000/svg"
   xmlns:svg="http://www.w3.org/2000/svg"><sodipodi:namedview
     id="namedview1"
     pagecolor="#ffffff"
     bordercolor="#000000"
     borderopacity="0.25"
     inkscape:showpageshadow="2"
     inkscape:pageopacity="0.0"
     inkscape:pagecheckerboard="0"
     inkscape:deskcolor="#d1d1d1"
     inkscape:document-units="px" /><defs
     id="defs1" /><g
     inkscape:label="Layer 1"
     inkscape:groupmode="layer"
     id="layer1"><rect
       style="fill:#3522ff;fill-opacity:1;stroke-width:1.70599"
       id="rect1"
       width="16"
       height="16"
       x="0"
       y="0" /><g
       style="fill:none"
       id="g1"
       transform="matrix(0.58808525,0,0,0.5466995,0.93567559,1.3299428)"><g
         id="SVGRepo_bgCarrier"
         stroke-width="0" /><g
         id="SVGRepo_tracerCarrier"
         stroke-linecap="round"
         stroke-linejoin="round" /><g
         id="SVGRepo_iconCarrier"><path
           d="M 10.49,2.23006 5.50003,4.10005 c -1.15,0.43 -2.09,1.78999 -2.09,3.01999 V 14.55 c 0,1.18 0.78002,2.73 1.73002,3.44 l 4.29998,3.2101 c 1.40997,1.06 3.72997,1.06 5.13997,0 l 4.3,-3.2101 c 0.95,-0.71 1.73,-2.26 1.73,-3.44 V 7.12004 c 0,-1.23 -0.94,-2.58999 -2.09,-3.01999 L 13.53,2.23006 c -0.85,-0.31 -2.21,-0.31 -3.04,0 z"
           stroke="#ffffff"
           stroke-width="1.5"
           stroke-linecap="round"
           stroke-linejoin="round"
           id="path1" /><path
           d="m 12.0001,10.92 c -0.04,0 -0.09,0 -0.13,0 -0.94,-0.03 -1.69,-0.81 -1.69,-1.75997 0,-0.97 0.79,-1.76001 1.76,-1.76001 0.97,0 1.76,0.79001 1.76,1.76001 -0.01,0.95997 -0.76,1.72997 -1.7,1.75997 z"
           stroke="#ffffff"
           stroke-width="1.5"
           stroke-linecap="round"
           stroke-linejoin="round"
           id="path2" /><path
           d="m 10.01,13.72 c -0.95996,0.64 -0.95996,1.69 0,2.33 1.09,0.73 2.88,0.73 3.97,0 0.96,-0.64 0.96,-1.69 0,-2.33 -1.08,-0.73 -2.87,-0.73 -3.97,0 z"
           stroke="#ffffff"
           stroke-width="1.5"
           stroke-linecap="round"
           stroke-linejoin="round"
           id="path3" /></g></g></g></svg>
